<svg width="100" height="100" viewBox="0 0 100 100" fill="none" xmlns="http://www.w3.org/2000/svg">
<path d="M84.917 0H15.083C6.78733 0 0 6.78733 0 15.083V84.917C0 93.2127 6.78733 100 15.083 100H84.917C93.2127 100 100 93.2127 100 84.917V15.083C100 6.78733 93.2127 0 84.917 0ZM17.7979 22.9261C19.1554 20.6636 20.9653 19.0045 23.2278 17.7979C25.4902 16.5913 28.0543 15.9879 30.9201 15.9879C33.7858 15.9879 36.3499 16.5913 38.6124 17.7979C40.8748 19.0045 42.6848 20.8145 44.0422 22.9261C45.3997 25.0377 46.003 27.6018 46.003 30.3167C46.003 33.0317 45.3997 35.4449 44.0422 37.7074C42.6848 39.819 40.8748 41.629 38.6124 42.8356C36.3499 44.0422 33.7858 44.6455 30.9201 44.6455C28.0543 44.6455 25.4902 44.0422 23.2278 42.8356C20.9653 41.629 19.1554 39.819 17.7979 37.7074C16.4404 35.4449 15.8371 33.0317 15.8371 30.3167C15.8371 27.6018 16.5913 25.0377 17.7979 22.9261ZM78.4314 84.0121L72.6998 75.8673C72.3982 75.8673 72.0965 75.8673 71.644 75.8673H65.3092V84.0121H60.181V56.1086H71.644C74.0573 56.1086 76.1689 56.5611 77.9789 57.3152C79.7888 58.0694 81.1463 59.276 82.0513 60.7843C82.9563 62.2926 83.5596 64.1026 83.5596 66.0633C83.5596 68.175 83.1071 69.9849 82.0513 71.4932C80.9955 73.0015 79.4872 74.2081 77.6772 74.8115L84.1629 84.0121H78.4314ZM84.0121 19.457L19.457 84.0121H15.8371V80.3922L80.3922 15.8371H84.0121V19.457Z" fill="white"/>
</svg>
