<svg width="263" height="30" viewBox="0 0 263 30" fill="none" xmlns="http://www.w3.org/2000/svg">
<path d="M7.43288 27.1433C5.1101 25.8824 3.31825 24.1569 1.99095 21.9669C0.66365 19.7768 0 17.2549 0 14.534C0 11.813 0.66365 9.29114 1.99095 7.1011C3.31825 4.91105 5.1101 3.1192 7.43288 1.92463C9.75565 0.663691 12.3439 0.0664062 15.1976 0.0664062C18.0513 0.0664062 20.6395 0.663691 22.9623 1.92463C25.2851 3.18556 27.0769 4.91105 28.4042 7.1011C29.7315 9.29114 30.3952 11.813 30.3952 14.6003C30.3952 17.3877 29.7315 19.8432 28.4042 22.0332C27.0769 24.2233 25.2851 25.9488 22.9623 27.2097C20.6395 28.4706 18.0513 29.0679 15.1976 29.0679C12.3439 29.0015 9.68929 28.4043 7.43288 27.1433ZM20.3077 23.1614C21.8341 22.2987 23.0287 21.1041 23.8914 19.5777C24.7541 18.0513 25.1523 16.3258 25.1523 14.4676C25.1523 12.6094 24.6878 10.8839 23.8914 9.35751C23.0287 7.83111 21.8341 6.63654 20.3077 5.7738C18.7813 4.91105 17.1222 4.51286 15.1976 4.51286C13.3394 4.51286 11.6139 4.91105 10.0875 5.7738C8.56108 6.63654 7.36651 7.83111 6.50377 9.35751C5.64102 10.8839 5.24284 12.6094 5.24284 14.4676C5.24284 16.3258 5.64102 18.0513 6.50377 19.5777C7.36651 21.1041 8.56108 22.2987 10.0875 23.1614C11.6139 24.0242 13.273 24.4224 15.1976 24.4224C17.0558 24.4224 18.7813 24.0242 20.3077 23.1614Z" fill="white"/>
<path d="M61.0562 0.332031V28.6035H56.7425L41.213 9.4904V28.6035H35.9702V0.332031H40.2839L55.8797 19.5115V0.332031H61.0562Z" fill="white"/>
<path d="M89.8584 24.2234V28.6035H68.688V0.332031H89.2611V4.77849H73.9308V12.0786H87.5357V16.4587H73.9308V24.2234H89.8584Z" fill="white"/>
<path d="M125.297 28.6035L119.523 20.3079C119.258 20.3079 118.926 20.3743 118.462 20.3743H112.09V28.6035H106.848V0.332031H118.462C120.917 0.332031 123.041 0.730221 124.833 1.5266C126.624 2.32298 128.018 3.51755 129.014 4.97758C130.009 6.50398 130.474 8.29583 130.474 10.3531C130.474 12.4768 129.943 14.335 128.947 15.8614C127.885 17.3878 126.425 18.516 124.501 19.3124L131.005 28.6035H125.297V28.6035ZM123.439 6.23852C122.244 5.24304 120.519 4.77849 118.262 4.77849H112.157V16.0605H118.262C120.519 16.0605 122.311 15.596 123.439 14.6005C124.633 13.605 125.231 12.2114 125.231 10.4195C125.231 8.62766 124.633 7.23399 123.439 6.23852Z" fill="white"/>
<path d="M141.756 27.1433C139.433 25.8824 137.641 24.1569 136.314 21.9669C134.986 19.7768 134.323 17.2549 134.323 14.534C134.323 11.813 134.986 9.29114 136.314 7.1011C137.641 4.91105 139.433 3.1192 141.756 1.92463C144.078 0.663691 146.667 0.0664062 149.52 0.0664062C152.374 0.0664062 154.962 0.663691 157.285 1.92463C159.608 3.18556 161.4 4.91105 162.727 7.1011C164.054 9.29114 164.718 11.813 164.718 14.6003C164.718 17.3877 164.054 19.8432 162.727 22.0332C161.4 24.2233 159.608 25.9488 157.285 27.2097C154.962 28.4706 152.374 29.0679 149.52 29.0679C146.667 29.0015 144.078 28.4043 141.756 27.1433ZM154.63 23.1614C156.157 22.2987 157.351 21.1041 158.214 19.5777C159.077 18.0513 159.475 16.3258 159.475 14.4676C159.475 12.6094 159.011 10.8839 158.214 9.35751C157.351 7.83111 156.157 6.63654 154.63 5.7738C153.104 4.91105 151.445 4.51286 149.52 4.51286C147.662 4.51286 145.937 4.91105 144.41 5.7738C142.884 6.63654 141.689 7.83111 140.827 9.35751C139.964 10.8839 139.566 12.6094 139.566 14.4676C139.566 16.3258 139.964 18.0513 140.827 19.5777C141.689 21.1041 142.884 22.2987 144.41 23.1614C145.937 24.0242 147.596 24.4224 149.52 24.4224C151.445 24.4224 153.104 24.0242 154.63 23.1614Z" fill="white"/>
<path d="M175.735 27.1433C173.412 25.8824 171.62 24.1569 170.293 21.9669C168.965 19.7768 168.302 17.2549 168.302 14.534C168.302 11.813 168.965 9.29114 170.293 7.1011C171.62 4.91105 173.412 3.1192 175.735 1.92463C178.057 0.663691 180.646 0.0664062 183.499 0.0664062C186.353 0.0664062 188.941 0.663691 191.264 1.92463C193.587 3.18556 195.379 4.91105 196.706 7.1011C198.033 9.29114 198.697 11.813 198.697 14.6003C198.697 17.3877 198.033 19.8432 196.706 22.0332C195.379 24.2233 193.587 25.9488 191.264 27.2097C188.941 28.4706 186.353 29.0679 183.499 29.0679C180.646 29.0015 178.057 28.4043 175.735 27.1433ZM188.609 23.1614C190.136 22.2987 191.33 21.1041 192.193 19.5777C193.056 18.0513 193.454 16.3258 193.454 14.4676C193.454 12.6094 192.99 10.8839 192.193 9.35751C191.33 7.83111 190.136 6.63654 188.609 5.7738C187.083 4.91105 185.424 4.51286 183.499 4.51286C181.641 4.51286 179.916 4.91105 178.389 5.7738C176.863 6.63654 175.668 7.83111 174.806 9.35751C173.943 10.8839 173.545 12.6094 173.545 14.4676C173.545 16.3258 173.943 18.0513 174.806 19.5777C175.668 21.1041 176.863 22.2987 178.389 23.1614C179.916 24.0242 181.575 24.4224 183.499 24.4224C185.424 24.4224 187.083 24.0242 188.609 23.1614Z" fill="white"/>
<path d="M230.287 28.6035L230.22 9.88859L220.929 25.418H218.606L209.315 10.1541V28.6035H204.338V0.332031H208.652L219.867 19.1133L230.884 0.332031H235.198V28.6035H230.287Z" fill="white"/>
<path d="M245.285 28.0724C243.228 27.4751 241.635 26.6124 240.44 25.6169L242.232 21.5686C243.36 22.4977 244.821 23.2278 246.48 23.825C248.139 24.4223 249.864 24.6878 251.523 24.6878C253.647 24.6878 255.173 24.356 256.235 23.6923C257.297 23.0287 257.762 22.1659 257.762 21.0377C257.762 20.2413 257.496 19.5777 256.899 19.0468C256.302 18.5158 255.572 18.1176 254.709 17.7858C253.846 17.5204 252.585 17.1222 251.059 16.7903C248.935 16.2594 247.143 15.7949 245.816 15.264C244.489 14.733 243.36 13.9367 242.365 12.8748C241.436 11.813 240.905 10.2866 240.905 8.42836C240.905 6.8356 241.303 5.44193 242.166 4.181C243.029 2.92006 244.29 1.85822 246.015 1.12821C247.741 0.39819 249.798 0 252.32 0C254.045 0 255.704 0.199095 257.43 0.66365C259.089 1.06184 260.549 1.72549 261.744 2.52187L260.084 6.57014C258.824 5.84012 257.563 5.3092 256.235 4.91101C254.908 4.51282 253.581 4.31372 252.32 4.31372C250.262 4.31372 248.736 4.64555 247.674 5.37557C246.679 6.10558 246.148 7.03469 246.148 8.1629C246.148 8.95928 246.413 9.62293 247.011 10.1538C247.608 10.6848 248.338 11.083 249.201 11.3484C250.063 11.6139 251.324 12.0121 252.851 12.3439C254.974 12.8084 256.7 13.3394 258.027 13.8703C259.354 14.4012 260.549 15.1976 261.478 16.2594C262.407 17.3213 262.938 18.7813 262.938 20.6395C262.938 22.2323 262.54 23.6259 261.677 24.8869C260.814 26.1478 259.554 27.1433 257.828 27.9397C256.103 28.6697 253.979 29.0679 251.523 29.0679C249.4 29.0015 247.342 28.736 245.285 28.0724Z" fill="white"/>
</svg>
